{
	"asset":{
		"generator":"Khronos glTF Blender I/O v3.5.30",
		"version":"2.0"
	},
	"scene":0,
	"scenes":[
		{
			"name":"Scene",
			"nodes":[
				0
			]
		}
	],
	"nodes":[
		{
			"mesh":0,
			"name":"CHAIR"
		}
	],
	"materials":[
		{
			"doubleSided":true,
			"name":"black",
			"pbrMetallicRoughness":{
				"baseColorFactor":[
					0.007518172264099121,
					0.007494937162846327,
					0.007494937162846327,
					1
				],
				"metallicFactor":0,
				"roughnessFactor":0.5
			}
		}
	],
	"meshes":[
		{
			"name":"Cylinder.004",
			"primitives":[
				{
					"attributes":{
						"POSITION":0,
						"TEXCOORD_0":1,
						"NORMAL":2
					},
					"indices":3,
					"material":0
				}
			]
		}
	],
	"accessors":[
		{
			"bufferView":0,
			"componentType":5126,
			"count":10792,
			"max":[
				0.22881421446800232,
				0.6408248543739319,
				-0.020136168226599693
			],
			"min":[
				-0.17568658292293549,
				0.056256212294101715,
				-0.47084712982177734
			],
			"type":"VEC3"
		},
		{
			"bufferView":1,
			"componentType":5126,
			"count":10792,
			"type":"VEC2"
		},
		{
			"bufferView":2,
			"componentType":5126,
			"count":10792,
			"type":"VEC3"
		},
		{
			"bufferView":3,
			"componentType":5123,
			"count":61104,
			"type":"SCALAR"
		}
	],
	"bufferViews":[
		{
			"buffer":0,
			"byteLength":129504,
			"byteOffset":0,
			"target":34962
		},
		{
			"buffer":0,
			"byteLength":86336,
			"byteOffset":129504,
			"target":34962
		},
		{
			"buffer":0,
			"byteLength":129504,
			"byteOffset":215840,
			"target":34962
		},
		{
			"buffer":0,
			"byteLength":122208,
			"byteOffset":345344,
			"target":34963
		}
	],
	"buffers":[
		{
			"byteLength":467552,
			"uri":"data:application/octet-stream;base64,"
		}
	]
}
