{
	"asset":{
		"generator":"Khronos glTF Blender I/O v3.5.30",
		"version":"2.0"
	},
	"scene":0,
	"scenes":[
		{
			"name":"Scene",
			"nodes":[
				0
			]
		}
	],
	"nodes":[
		{
			"mesh":0,
			"name":"kitchen-rack"
		}
	],
	"materials":[
		{
			"doubleSided":true,
			"name":"TABLE",
			"pbrMetallicRoughness":{
				"baseColorFactor":[
					0.03736364096403122,
					0.019088340923190117,
					0.005679147783666849,
					1
				],
				"metallicFactor":0.14960630238056183,
				"roughnessFactor":0.07480314373970032
			}
		}
	],
	"meshes":[
		{
			"name":"Cube.004",
			"primitives":[
				{
					"attributes":{
						"POSITION":0,
						"TEXCOORD_0":1,
						"NORMAL":2
					},
					"indices":3,
					"material":0
				}
			]
		}
	],
	"accessors":[
		{
			"bufferView":0,
			"componentType":5126,
			"count":3154,
			"max":[
				0.9344574213027954,
				0.3354022204875946,
				0.9176597595214844
			],
			"min":[
				0.3225302994251251,
				0.04999983310699463,
				0.3103190064430237
			],
			"type":"VEC3"
		},
		{
			"bufferView":1,
			"componentType":5126,
			"count":3154,
			"type":"VEC2"
		},
		{
			"bufferView":2,
			"componentType":5126,
			"count":3154,
			"type":"VEC3"
		},
		{
			"bufferView":3,
			"componentType":5123,
			"count":15804,
			"type":"SCALAR"
		}
	],
	"bufferViews":[
		{
			"buffer":0,
			"byteLength":37848,
			"byteOffset":0,
			"target":34962
		},
		{
			"buffer":0,
			"byteLength":25232,
			"byteOffset":37848,
			"target":34962
		},
		{
			"buffer":0,
			"byteLength":37848,
			"byteOffset":63080,
			"target":34962
		},
		{
			"buffer":0,
			"byteLength":31608,
			"byteOffset":100928,
			"target":34963
		}
	],
	"buffers":[
		{
			"byteLength":132536,
			"uri":"data:application/octet-stream;base64,"
		}
	]
}
