{
	"asset":{
		"generator":"Khronos glTF Blender I/O v3.5.30",
		"version":"2.0"
	},
	"scene":0,
	"scenes":[
		{
			"name":"Scene",
			"nodes":[
				0,
				1,
				2
			]
		}
	],
	"nodes":[
		{
			"mesh":0,
			"name":"CAVALETE 1"
		},
		{
			"mesh":1,
			"name":"CAVALETE 2"
		},
		{
			"mesh":2,
			"name":"TABLE"
		}
	],
	"materials":[
		{
			"doubleSided":true,
			"name":"CAVALETE",
			"pbrMetallicRoughness":{
				"metallicFactor":0,
				"roughnessFactor":0.5
			}
		},
		{
			"doubleSided":true,
			"name":"TABLE",
			"pbrMetallicRoughness":{
				"baseColorFactor":[
					0.03736364096403122,
					0.019088340923190117,
					0.005679147783666849,
					1
				],
				"metallicFactor":0.14960630238056183,
				"roughnessFactor":0.07480314373970032
			}
		}
	],
	"meshes":[
		{
			"name":"Plane.020",
			"primitives":[
				{
					"attributes":{
						"POSITION":0,
						"TEXCOORD_0":1,
						"NORMAL":2
					},
					"indices":3,
					"material":0
				}
			]
		},
		{
			"name":"Plane.021",
			"primitives":[
				{
					"attributes":{
						"POSITION":4,
						"TEXCOORD_0":5,
						"NORMAL":6
					},
					"indices":3,
					"material":0
				}
			]
		},
		{
			"name":"Plane.022",
			"primitives":[
				{
					"attributes":{
						"POSITION":7,
						"TEXCOORD_0":8,
						"NORMAL":9
					},
					"indices":10,
					"material":1
				}
			]
		}
	],
	"accessors":[
		{
			"bufferView":0,
			"componentType":5126,
			"count":768,
			"max":[
				0.5699805021286011,
				0.4398249387741089,
				-0.5105565786361694
			],
			"min":[
				0.2555887997150421,
				0.050000131130218506,
				-0.9499998092651367
			],
			"type":"VEC3"
		},
		{
			"bufferView":1,
			"componentType":5126,
			"count":768,
			"type":"VEC2"
		},
		{
			"bufferView":2,
			"componentType":5126,
			"count":768,
			"type":"VEC3"
		},
		{
			"bufferView":3,
			"componentType":5123,
			"count":1056,
			"type":"SCALAR"
		},
		{
			"bufferView":4,
			"componentType":5126,
			"count":768,
			"max":[
				-0.19923584163188934,
				0.43982475996017456,
				-0.5105566382408142
			],
			"min":[
				-0.5136275887489319,
				0.04999997466802597,
				-0.9499998688697815
			],
			"type":"VEC3"
		},
		{
			"bufferView":5,
			"componentType":5126,
			"count":768,
			"type":"VEC2"
		},
		{
			"bufferView":6,
			"componentType":5126,
			"count":768,
			"type":"VEC3"
		},
		{
			"bufferView":7,
			"componentType":5126,
			"count":96,
			"max":[
				0.5006945133209229,
				0.46442702412605286,
				-0.4766384959220886
			],
			"min":[
				-0.45572441816329956,
				0.43710076808929443,
				-0.9499998092651367
			],
			"type":"VEC3"
		},
		{
			"bufferView":8,
			"componentType":5126,
			"count":96,
			"type":"VEC2"
		},
		{
			"bufferView":9,
			"componentType":5126,
			"count":96,
			"type":"VEC3"
		},
		{
			"bufferView":10,
			"componentType":5123,
			"count":132,
			"type":"SCALAR"
		}
	],
	"bufferViews":[
		{
			"buffer":0,
			"byteLength":9216,
			"byteOffset":0,
			"target":34962
		},
		{
			"buffer":0,
			"byteLength":6144,
			"byteOffset":9216,
			"target":34962
		},
		{
			"buffer":0,
			"byteLength":9216,
			"byteOffset":15360,
			"target":34962
		},
		{
			"buffer":0,
			"byteLength":2112,
			"byteOffset":24576,
			"target":34963
		},
		{
			"buffer":0,
			"byteLength":9216,
			"byteOffset":26688,
			"target":34962
		},
		{
			"buffer":0,
			"byteLength":6144,
			"byteOffset":35904,
			"target":34962
		},
		{
			"buffer":0,
			"byteLength":9216,
			"byteOffset":42048,
			"target":34962
		},
		{
			"buffer":0,
			"byteLength":1152,
			"byteOffset":51264,
			"target":34962
		},
		{
			"buffer":0,
			"byteLength":768,
			"byteOffset":52416,
			"target":34962
		},
		{
			"buffer":0,
			"byteLength":1152,
			"byteOffset":53184,
			"target":34962
		},
		{
			"buffer":0,
			"byteLength":264,
			"byteOffset":54336,
			"target":34963
		}
	],
	"buffers":[
		{
			"byteLength":54600,
			"uri":"data:application/octet-stream;base64,"
		}
	]
}
