{
	"asset":{
		"generator":"Khronos glTF Blender I/O v3.5.30",
		"version":"2.0"
	},
	"scene":0,
	"scenes":[
		{
			"name":"Scene",
			"nodes":[
				0,
				1,
				2,
				3,
				4,
				5,
				6,
				7,
				8,
				9,
				10,
				11,
				12,
				13,
				14,
				15,
				16,
				17,
				18,
				19,
				20,
				21
			]
		}
	],
	"nodes":[
		{
			"mesh":0,
			"name":"Book"
		},
		{
			"mesh":1,
			"name":"Book.001"
		},
		{
			"mesh":2,
			"name":"Book.002"
		},
		{
			"mesh":3,
			"name":"Book.003"
		},
		{
			"mesh":4,
			"name":"Book.004"
		},
		{
			"mesh":5,
			"name":"Book.005"
		},
		{
			"mesh":6,
			"name":"CUBE 1"
		},
		{
			"mesh":7,
			"name":"Book.015"
		},
		{
			"mesh":8,
			"name":"Book.016"
		},
		{
			"mesh":9,
			"name":"Book.017"
		},
		{
			"mesh":10,
			"name":"CUBE 2"
		},
		{
			"mesh":11,
			"name":"Book.006"
		},
		{
			"mesh":12,
			"name":"Book.007"
		},
		{
			"mesh":13,
			"name":"Book.008"
		},
		{
			"mesh":14,
			"name":"Book.009"
		},
		{
			"mesh":15,
			"name":"Book.010"
		},
		{
			"mesh":16,
			"name":"Book.011"
		},
		{
			"mesh":17,
			"name":"CUBE 4"
		},
		{
			"mesh":18,
			"name":"Book.012"
		},
		{
			"mesh":19,
			"name":"Book.013"
		},
		{
			"mesh":20,
			"name":"Book.014"
		},
		{
			"mesh":21,
			"name":"CUBE 3"
		}
	],
	"materials":[
		{
			"doubleSided":true,
			"name":"BOOK 4",
			"pbrMetallicRoughness":{
				"baseColorFactor":[
					0.04625077173113823,
					0.47286319732666016,
					0.5907994508743286,
					1
				],
				"metallicFactor":0,
				"roughnessFactor":0.5
			}
		},
		{
			"doubleSided":true,
			"name":"BOOK 1",
			"pbrMetallicRoughness":{
				"baseColorFactor":[
					0.8000000715255737,
					0.21610306203365326,
					0.10514873266220093,
					1
				],
				"metallicFactor":0,
				"roughnessFactor":0.5
			}
		},
		{
			"doubleSided":true,
			"name":"BOOK 2",
			"pbrMetallicRoughness":{
				"baseColorFactor":[
					0.043517354875802994,
					0.043517354875802994,
					0.043517354875802994,
					1
				],
				"metallicFactor":0,
				"roughnessFactor":0.5
			}
		},
		{
			"doubleSided":true,
			"name":"BOOK 3",
			"pbrMetallicRoughness":{
				"baseColorFactor":[
					0.8000000715255737,
					0.6741567850112915,
					0,
					1
				],
				"metallicFactor":0,
				"roughnessFactor":0.5
			}
		},
		{
			"doubleSided":true,
			"name":"TABLE",
			"pbrMetallicRoughness":{
				"baseColorFactor":[
					0.03736364096403122,
					0.019088340923190117,
					0.005679147783666849,
					1
				],
				"metallicFactor":0.14960630238056183,
				"roughnessFactor":0.07480314373970032
			}
		}
	],
	"meshes":[
		{
			"name":"Mesh.020",
			"primitives":[
				{
					"attributes":{
						"POSITION":0,
						"TEXCOORD_0":1,
						"NORMAL":2
					},
					"indices":3,
					"material":0
				}
			]
		},
		{
			"name":"Mesh.022",
			"primitives":[
				{
					"attributes":{
						"POSITION":4,
						"TEXCOORD_0":5,
						"NORMAL":6
					},
					"indices":3,
					"material":1
				}
			]
		},
		{
			"name":"Mesh.023",
			"primitives":[
				{
					"attributes":{
						"POSITION":7,
						"TEXCOORD_0":8,
						"NORMAL":9
					},
					"indices":3,
					"material":1
				}
			]
		},
		{
			"name":"Mesh.024",
			"primitives":[
				{
					"attributes":{
						"POSITION":10,
						"TEXCOORD_0":11,
						"NORMAL":12
					},
					"indices":3,
					"material":2
				}
			]
		},
		{
			"name":"Mesh.025",
			"primitives":[
				{
					"attributes":{
						"POSITION":13,
						"TEXCOORD_0":14,
						"NORMAL":15
					},
					"indices":3,
					"material":3
				}
			]
		},
		{
			"name":"Mesh.026",
			"primitives":[
				{
					"attributes":{
						"POSITION":16,
						"TEXCOORD_0":17,
						"NORMAL":18
					},
					"indices":3,
					"material":0
				}
			]
		},
		{
			"name":"Cube.003",
			"primitives":[
				{
					"attributes":{
						"POSITION":19,
						"TEXCOORD_0":20,
						"NORMAL":21
					},
					"indices":22,
					"material":4
				}
			]
		},
		{
			"name":"Mesh.036",
			"primitives":[
				{
					"attributes":{
						"POSITION":23,
						"TEXCOORD_0":24,
						"NORMAL":25
					},
					"indices":3,
					"material":3
				}
			]
		},
		{
			"name":"Mesh.037",
			"primitives":[
				{
					"attributes":{
						"POSITION":26,
						"TEXCOORD_0":27,
						"NORMAL":28
					},
					"indices":3,
					"material":2
				}
			]
		},
		{
			"name":"Mesh.038",
			"primitives":[
				{
					"attributes":{
						"POSITION":29,
						"TEXCOORD_0":30,
						"NORMAL":31
					},
					"indices":3,
					"material":1
				}
			]
		},
		{
			"name":"Cube",
			"primitives":[
				{
					"attributes":{
						"POSITION":32,
						"TEXCOORD_0":33,
						"NORMAL":34
					},
					"indices":22,
					"material":4
				}
			]
		},
		{
			"name":"Mesh.027",
			"primitives":[
				{
					"attributes":{
						"POSITION":35,
						"TEXCOORD_0":36,
						"NORMAL":37
					},
					"indices":3,
					"material":3
				}
			]
		},
		{
			"name":"Mesh.028",
			"primitives":[
				{
					"attributes":{
						"POSITION":38,
						"TEXCOORD_0":39,
						"NORMAL":40
					},
					"indices":3,
					"material":2
				}
			]
		},
		{
			"name":"Mesh.029",
			"primitives":[
				{
					"attributes":{
						"POSITION":41,
						"TEXCOORD_0":42,
						"NORMAL":43
					},
					"indices":3,
					"material":1
				}
			]
		},
		{
			"name":"Mesh.030",
			"primitives":[
				{
					"attributes":{
						"POSITION":44,
						"TEXCOORD_0":45,
						"NORMAL":46
					},
					"indices":3,
					"material":2
				}
			]
		},
		{
			"name":"Mesh.031",
			"primitives":[
				{
					"attributes":{
						"POSITION":47,
						"TEXCOORD_0":48,
						"NORMAL":49
					},
					"indices":3,
					"material":0
				}
			]
		},
		{
			"name":"Mesh.032",
			"primitives":[
				{
					"attributes":{
						"POSITION":50,
						"TEXCOORD_0":51,
						"NORMAL":52
					},
					"indices":3,
					"material":1
				}
			]
		},
		{
			"name":"Cube.001",
			"primitives":[
				{
					"attributes":{
						"POSITION":53,
						"TEXCOORD_0":54,
						"NORMAL":55
					},
					"indices":22,
					"material":4
				}
			]
		},
		{
			"name":"Mesh.033",
			"primitives":[
				{
					"attributes":{
						"POSITION":56,
						"TEXCOORD_0":57,
						"NORMAL":58
					},
					"indices":3,
					"material":2
				}
			]
		},
		{
			"name":"Mesh.034",
			"primitives":[
				{
					"attributes":{
						"POSITION":59,
						"TEXCOORD_0":60,
						"NORMAL":61
					},
					"indices":3,
					"material":1
				}
			]
		},
		{
			"name":"Mesh.035",
			"primitives":[
				{
					"attributes":{
						"POSITION":62,
						"TEXCOORD_0":63,
						"NORMAL":64
					},
					"indices":3,
					"material":0
				}
			]
		},
		{
			"name":"Cube.002",
			"primitives":[
				{
					"attributes":{
						"POSITION":65,
						"TEXCOORD_0":66,
						"NORMAL":67
					},
					"indices":22,
					"material":4
				}
			]
		}
	],
	"accessors":[
		{
			"bufferView":0,
			"componentType":5126,
			"count":1890,
			"max":[
				-0.850854218006134,
				0.7733426690101624,
				-0.16133955121040344
			],
			"min":[
				-0.9500000476837158,
				0.6266061663627625,
				-0.1831684410572052
			],
			"type":"VEC3"
		},
		{
			"bufferView":1,
			"componentType":5126,
			"count":1890,
			"type":"VEC2"
		},
		{
			"bufferView":2,
			"componentType":5126,
			"count":1890,
			"type":"VEC3"
		},
		{
			"bufferView":3,
			"componentType":5123,
			"count":8916,
			"type":"SCALAR"
		},
		{
			"bufferView":4,
			"componentType":5126,
			"count":1890,
			"max":[
				-0.850854218006134,
				0.7733426690101624,
				-0.13986098766326904
			],
			"min":[
				-0.9500000476837158,
				0.6266061663627625,
				-0.1616898775100708
			],
			"type":"VEC3"
		},
		{
			"bufferView":5,
			"componentType":5126,
			"count":1890,
			"type":"VEC2"
		},
		{
			"bufferView":6,
			"componentType":5126,
			"count":1890,
			"type":"VEC3"
		},
		{
			"bufferView":7,
			"componentType":5126,
			"count":1890,
			"max":[
				-0.850854218006134,
				0.773726761341095,
				-0.10789815336465836
			],
			"min":[
				-0.9500000476837158,
				0.6258339285850525,
				-0.14028945565223694
			],
			"type":"VEC3"
		},
		{
			"bufferView":8,
			"componentType":5126,
			"count":1890,
			"type":"VEC2"
		},
		{
			"bufferView":9,
			"componentType":5126,
			"count":1890,
			"type":"VEC3"
		},
		{
			"bufferView":10,
			"componentType":5126,
			"count":1890,
			"max":[
				-0.850854218006134,
				0.7727596163749695,
				-0.06967717409133911
			],
			"min":[
				-0.9500000476837158,
				0.6246304512023926,
				-0.11829623579978943
			],
			"type":"VEC3"
		},
		{
			"bufferView":11,
			"componentType":5126,
			"count":1890,
			"type":"VEC2"
		},
		{
			"bufferView":12,
			"componentType":5126,
			"count":1890,
			"type":"VEC3"
		},
		{
			"bufferView":13,
			"componentType":5126,
			"count":1890,
			"max":[
				-0.850854218006134,
				0.7717150449752808,
				-0.04016133397817612
			],
			"min":[
				-0.9500000476837158,
				0.6241024732589722,
				-0.09580592066049576
			],
			"type":"VEC3"
		},
		{
			"bufferView":14,
			"componentType":5126,
			"count":1890,
			"type":"VEC2"
		},
		{
			"bufferView":15,
			"componentType":5126,
			"count":1890,
			"type":"VEC3"
		},
		{
			"bufferView":16,
			"componentType":5126,
			"count":1890,
			"max":[
				-0.850854218006134,
				0.7705609798431396,
				-0.012370090931653976
			],
			"min":[
				-0.9500000476837158,
				0.6236684322357178,
				-0.0737486258149147
			],
			"type":"VEC3"
		},
		{
			"bufferView":17,
			"componentType":5126,
			"count":1890,
			"type":"VEC2"
		},
		{
			"bufferView":18,
			"componentType":5126,
			"count":1890,
			"type":"VEC3"
		},
		{
			"bufferView":19,
			"componentType":5126,
			"count":56,
			"max":[
				-0.8532751202583313,
				0.83363938331604,
				0.02365051582455635
			],
			"min":[
				-0.9499999284744263,
				0.6110833883285522,
				-0.19890545308589935
			],
			"type":"VEC3"
		},
		{
			"bufferView":20,
			"componentType":5126,
			"count":56,
			"type":"VEC2"
		},
		{
			"bufferView":21,
			"componentType":5126,
			"count":56,
			"type":"VEC3"
		},
		{
			"bufferView":22,
			"componentType":5123,
			"count":96,
			"type":"SCALAR"
		},
		{
			"bufferView":23,
			"componentType":5126,
			"count":1890,
			"max":[
				-0.850854218006134,
				1.1751737594604492,
				0.687055230140686
			],
			"min":[
				-0.9500000476837158,
				1.0273510217666626,
				0.6555849313735962
			],
			"type":"VEC3"
		},
		{
			"bufferView":24,
			"componentType":5126,
			"count":1890,
			"type":"VEC2"
		},
		{
			"bufferView":25,
			"componentType":5126,
			"count":1890,
			"type":"VEC3"
		},
		{
			"bufferView":26,
			"componentType":5126,
			"count":1890,
			"max":[
				-0.850854218006134,
				1.175174593925476,
				0.7087085843086243
			],
			"min":[
				-0.9500000476837158,
				1.0273383855819702,
				0.6770647764205933
			],
			"type":"VEC3"
		},
		{
			"bufferView":27,
			"componentType":5126,
			"count":1890,
			"type":"VEC2"
		},
		{
			"bufferView":28,
			"componentType":5126,
			"count":1890,
			"type":"VEC3"
		},
		{
			"bufferView":29,
			"componentType":5126,
			"count":1890,
			"max":[
				-0.850854218006134,
				1.1747920513153076,
				0.730862021446228
			],
			"min":[
				-0.9500000476837158,
				1.0280556678771973,
				0.709033191204071
			],
			"type":"VEC3"
		},
		{
			"bufferView":30,
			"componentType":5126,
			"count":1890,
			"type":"VEC2"
		},
		{
			"bufferView":31,
			"componentType":5126,
			"count":1890,
			"type":"VEC3"
		},
		{
			"bufferView":32,
			"componentType":5126,
			"count":56,
			"max":[
				-0.8532751798629761,
				1.2348744869232178,
				0.7465990781784058
			],
			"min":[
				-0.949999988079071,
				1.01231849193573,
				0.524043083190918
			],
			"type":"VEC3"
		},
		{
			"bufferView":33,
			"componentType":5126,
			"count":56,
			"type":"VEC2"
		},
		{
			"bufferView":34,
			"componentType":5126,
			"count":56,
			"type":"VEC3"
		},
		{
			"bufferView":35,
			"componentType":5126,
			"count":1890,
			"max":[
				-0.8508540987968445,
				0.953967273235321,
				0.22575849294662476
			],
			"min":[
				-0.949999988079071,
				0.8072308301925659,
				0.2039296180009842
			],
			"type":"VEC3"
		},
		{
			"bufferView":36,
			"componentType":5126,
			"count":1890,
			"type":"VEC2"
		},
		{
			"bufferView":37,
			"componentType":5126,
			"count":1890,
			"type":"VEC3"
		},
		{
			"bufferView":38,
			"componentType":5126,
			"count":1890,
			"max":[
				-0.8508540987968445,
				0.953967273235321,
				0.24723704159259796
			],
			"min":[
				-0.949999988079071,
				0.8072308301925659,
				0.2254081666469574
			],
			"type":"VEC3"
		},
		{
			"bufferView":39,
			"componentType":5126,
			"count":1890,
			"type":"VEC2"
		},
		{
			"bufferView":40,
			"componentType":5126,
			"count":1890,
			"type":"VEC3"
		},
		{
			"bufferView":41,
			"componentType":5126,
			"count":1890,
			"max":[
				-0.8508540391921997,
				0.9530073404312134,
				0.3091944754123688
			],
			"min":[
				-0.9499998688697815,
				0.8050409555435181,
				0.25771889090538025
			],
			"type":"VEC3"
		},
		{
			"bufferView":42,
			"componentType":5126,
			"count":1890,
			"type":"VEC2"
		},
		{
			"bufferView":43,
			"componentType":5126,
			"count":1890,
			"type":"VEC3"
		},
		{
			"bufferView":44,
			"componentType":5126,
			"count":1890,
			"max":[
				-0.8508540987968445,
				0.9543095827102661,
				0.33167949318885803
			],
			"min":[
				-0.949999988079071,
				0.806210458278656,
				0.29591846466064453
			],
			"type":"VEC3"
		},
		{
			"bufferView":45,
			"componentType":5126,
			"count":1890,
			"type":"VEC2"
		},
		{
			"bufferView":46,
			"componentType":5126,
			"count":1890,
			"type":"VEC3"
		},
		{
			"bufferView":47,
			"componentType":5126,
			"count":1890,
			"max":[
				-0.8508540987968445,
				0.9542844295501709,
				0.3534676432609558
			],
			"min":[
				-0.949999988079071,
				0.8067836761474609,
				0.3255091905593872
			],
			"type":"VEC3"
		},
		{
			"bufferView":48,
			"componentType":5126,
			"count":1890,
			"type":"VEC2"
		},
		{
			"bufferView":49,
			"componentType":5126,
			"count":1890,
			"type":"VEC3"
		},
		{
			"bufferView":50,
			"componentType":5126,
			"count":1890,
			"max":[
				-0.8508540987968445,
				0.953967273235321,
				0.375237375497818
			],
			"min":[
				-0.949999988079071,
				0.8072308301925659,
				0.3534085154533386
			],
			"type":"VEC3"
		},
		{
			"bufferView":51,
			"componentType":5126,
			"count":1890,
			"type":"VEC2"
		},
		{
			"bufferView":52,
			"componentType":5126,
			"count":1890,
			"type":"VEC3"
		},
		{
			"bufferView":53,
			"componentType":5126,
			"count":56,
			"max":[
				-0.853274941444397,
				1.0136345624923706,
				0.3909744322299957
			],
			"min":[
				-0.9499997496604919,
				0.7910785675048828,
				0.16841845214366913
			],
			"type":"VEC3"
		},
		{
			"bufferView":54,
			"componentType":5126,
			"count":56,
			"type":"VEC2"
		},
		{
			"bufferView":55,
			"componentType":5126,
			"count":56,
			"type":"VEC3"
		},
		{
			"bufferView":56,
			"componentType":5126,
			"count":1890,
			"max":[
				-0.8508540987968445,
				1.2310447692871094,
				-0.18581914901733398
			],
			"min":[
				-0.949999988079071,
				1.0843082666397095,
				-0.20764803886413574
			],
			"type":"VEC3"
		},
		{
			"bufferView":57,
			"componentType":5126,
			"count":1890,
			"type":"VEC2"
		},
		{
			"bufferView":58,
			"componentType":5126,
			"count":1890,
			"type":"VEC3"
		},
		{
			"bufferView":59,
			"componentType":5126,
			"count":1890,
			"max":[
				-0.8508540987968445,
				1.2310447692871094,
				-0.16434060037136078
			],
			"min":[
				-0.949999988079071,
				1.0843082666397095,
				-0.18616949021816254
			],
			"type":"VEC3"
		},
		{
			"bufferView":60,
			"componentType":5126,
			"count":1890,
			"type":"VEC2"
		},
		{
			"bufferView":61,
			"componentType":5126,
			"count":1890,
			"type":"VEC3"
		},
		{
			"bufferView":62,
			"componentType":5126,
			"count":1890,
			"max":[
				-0.8508540987968445,
				1.231428861618042,
				-0.1323760449886322
			],
			"min":[
				-0.949999988079071,
				1.083552598953247,
				-0.16454298794269562
			],
			"type":"VEC3"
		},
		{
			"bufferView":63,
			"componentType":5126,
			"count":1890,
			"type":"VEC2"
		},
		{
			"bufferView":64,
			"componentType":5126,
			"count":1890,
			"type":"VEC3"
		},
		{
			"bufferView":65,
			"componentType":5126,
			"count":56,
			"max":[
				-0.8532750010490417,
				1.29112708568573,
				-0.0008291063131764531
			],
			"min":[
				-0.9499998092651367,
				1.0685710906982422,
				-0.2233850359916687
			],
			"type":"VEC3"
		},
		{
			"bufferView":66,
			"componentType":5126,
			"count":56,
			"type":"VEC2"
		},
		{
			"bufferView":67,
			"componentType":5126,
			"count":56,
			"type":"VEC3"
		}
	],
	"bufferViews":[
		{
			"buffer":0,
			"byteLength":22680,
			"byteOffset":0,
			"target":34962
		},
		{
			"buffer":0,
			"byteLength":15120,
			"byteOffset":22680,
			"target":34962
		},
		{
			"buffer":0,
			"byteLength":22680,
			"byteOffset":37800,
			"target":34962
		},
		{
			"buffer":0,
			"byteLength":17832,
			"byteOffset":60480,
			"target":34963
		},
		{
			"buffer":0,
			"byteLength":22680,
			"byteOffset":78312,
			"target":34962
		},
		{
			"buffer":0,
			"byteLength":15120,
			"byteOffset":100992,
			"target":34962
		},
		{
			"buffer":0,
			"byteLength":22680,
			"byteOffset":116112,
			"target":34962
		},
		{
			"buffer":0,
			"byteLength":22680,
			"byteOffset":138792,
			"target":34962
		},
		{
			"buffer":0,
			"byteLength":15120,
			"byteOffset":161472,
			"target":34962
		},
		{
			"buffer":0,
			"byteLength":22680,
			"byteOffset":176592,
			"target":34962
		},
		{
			"buffer":0,
			"byteLength":22680,
			"byteOffset":199272,
			"target":34962
		},
		{
			"buffer":0,
			"byteLength":15120,
			"byteOffset":221952,
			"target":34962
		},
		{
			"buffer":0,
			"byteLength":22680,
			"byteOffset":237072,
			"target":34962
		},
		{
			"buffer":0,
			"byteLength":22680,
			"byteOffset":259752,
			"target":34962
		},
		{
			"buffer":0,
			"byteLength":15120,
			"byteOffset":282432,
			"target":34962
		},
		{
			"buffer":0,
			"byteLength":22680,
			"byteOffset":297552,
			"target":34962
		},
		{
			"buffer":0,
			"byteLength":22680,
			"byteOffset":320232,
			"target":34962
		},
		{
			"buffer":0,
			"byteLength":15120,
			"byteOffset":342912,
			"target":34962
		},
		{
			"buffer":0,
			"byteLength":22680,
			"byteOffset":358032,
			"target":34962
		},
		{
			"buffer":0,
			"byteLength":672,
			"byteOffset":380712,
			"target":34962
		},
		{
			"buffer":0,
			"byteLength":448,
			"byteOffset":381384,
			"target":34962
		},
		{
			"buffer":0,
			"byteLength":672,
			"byteOffset":381832,
			"target":34962
		},
		{
			"buffer":0,
			"byteLength":192,
			"byteOffset":382504,
			"target":34963
		},
		{
			"buffer":0,
			"byteLength":22680,
			"byteOffset":382696,
			"target":34962
		},
		{
			"buffer":0,
			"byteLength":15120,
			"byteOffset":405376,
			"target":34962
		},
		{
			"buffer":0,
			"byteLength":22680,
			"byteOffset":420496,
			"target":34962
		},
		{
			"buffer":0,
			"byteLength":22680,
			"byteOffset":443176,
			"target":34962
		},
		{
			"buffer":0,
			"byteLength":15120,
			"byteOffset":465856,
			"target":34962
		},
		{
			"buffer":0,
			"byteLength":22680,
			"byteOffset":480976,
			"target":34962
		},
		{
			"buffer":0,
			"byteLength":22680,
			"byteOffset":503656,
			"target":34962
		},
		{
			"buffer":0,
			"byteLength":15120,
			"byteOffset":526336,
			"target":34962
		},
		{
			"buffer":0,
			"byteLength":22680,
			"byteOffset":541456,
			"target":34962
		},
		{
			"buffer":0,
			"byteLength":672,
			"byteOffset":564136,
			"target":34962
		},
		{
			"buffer":0,
			"byteLength":448,
			"byteOffset":564808,
			"target":34962
		},
		{
			"buffer":0,
			"byteLength":672,
			"byteOffset":565256,
			"target":34962
		},
		{
			"buffer":0,
			"byteLength":22680,
			"byteOffset":565928,
			"target":34962
		},
		{
			"buffer":0,
			"byteLength":15120,
			"byteOffset":588608,
			"target":34962
		},
		{
			"buffer":0,
			"byteLength":22680,
			"byteOffset":603728,
			"target":34962
		},
		{
			"buffer":0,
			"byteLength":22680,
			"byteOffset":626408,
			"target":34962
		},
		{
			"buffer":0,
			"byteLength":15120,
			"byteOffset":649088,
			"target":34962
		},
		{
			"buffer":0,
			"byteLength":22680,
			"byteOffset":664208,
			"target":34962
		},
		{
			"buffer":0,
			"byteLength":22680,
			"byteOffset":686888,
			"target":34962
		},
		{
			"buffer":0,
			"byteLength":15120,
			"byteOffset":709568,
			"target":34962
		},
		{
			"buffer":0,
			"byteLength":22680,
			"byteOffset":724688,
			"target":34962
		},
		{
			"buffer":0,
			"byteLength":22680,
			"byteOffset":747368,
			"target":34962
		},
		{
			"buffer":0,
			"byteLength":15120,
			"byteOffset":770048,
			"target":34962
		},
		{
			"buffer":0,
			"byteLength":22680,
			"byteOffset":785168,
			"target":34962
		},
		{
			"buffer":0,
			"byteLength":22680,
			"byteOffset":807848,
			"target":34962
		},
		{
			"buffer":0,
			"byteLength":15120,
			"byteOffset":830528,
			"target":34962
		},
		{
			"buffer":0,
			"byteLength":22680,
			"byteOffset":845648,
			"target":34962
		},
		{
			"buffer":0,
			"byteLength":22680,
			"byteOffset":868328,
			"target":34962
		},
		{
			"buffer":0,
			"byteLength":15120,
			"byteOffset":891008,
			"target":34962
		},
		{
			"buffer":0,
			"byteLength":22680,
			"byteOffset":906128,
			"target":34962
		},
		{
			"buffer":0,
			"byteLength":672,
			"byteOffset":928808,
			"target":34962
		},
		{
			"buffer":0,
			"byteLength":448,
			"byteOffset":929480,
			"target":34962
		},
		{
			"buffer":0,
			"byteLength":672,
			"byteOffset":929928,
			"target":34962
		},
		{
			"buffer":0,
			"byteLength":22680,
			"byteOffset":930600,
			"target":34962
		},
		{
			"buffer":0,
			"byteLength":15120,
			"byteOffset":953280,
			"target":34962
		},
		{
			"buffer":0,
			"byteLength":22680,
			"byteOffset":968400,
			"target":34962
		},
		{
			"buffer":0,
			"byteLength":22680,
			"byteOffset":991080,
			"target":34962
		},
		{
			"buffer":0,
			"byteLength":15120,
			"byteOffset":1013760,
			"target":34962
		},
		{
			"buffer":0,
			"byteLength":22680,
			"byteOffset":1028880,
			"target":34962
		},
		{
			"buffer":0,
			"byteLength":22680,
			"byteOffset":1051560,
			"target":34962
		},
		{
			"buffer":0,
			"byteLength":15120,
			"byteOffset":1074240,
			"target":34962
		},
		{
			"buffer":0,
			"byteLength":22680,
			"byteOffset":1089360,
			"target":34962
		},
		{
			"buffer":0,
			"byteLength":672,
			"byteOffset":1112040,
			"target":34962
		},
		{
			"buffer":0,
			"byteLength":448,
			"byteOffset":1112712,
			"target":34962
		},
		{
			"buffer":0,
			"byteLength":672,
			"byteOffset":1113160,
			"target":34962
		}
	],
	"buffers":[
		{
			"byteLength":1113832,
			"uri":"data:application/octet-stream;base64,"
		}
	]
}
