{
	"asset":{
		"generator":"Khronos glTF Blender I/O v3.5.30",
		"version":"2.0"
	},
	"scene":0,
	"scenes":[
		{
			"name":"Scene",
			"nodes":[
				0
			]
		}
	],
	"nodes":[
		{
			"mesh":0,
			"name":"Cube"
		}
	],
	"animations":[
		{
			"channels":[
				{
					"sampler":0,
					"target":{
						"node":0,
						"path":"translation"
					}
				},
				{
					"sampler":1,
					"target":{
						"node":0,
						"path":"rotation"
					}
				},
				{
					"sampler":2,
					"target":{
						"node":0,
						"path":"scale"
					}
				}
			],
			"name":"Cube",
			"samplers":[
				{
					"input":4,
					"interpolation":"LINEAR",
					"output":5
				},
				{
					"input":4,
					"interpolation":"LINEAR",
					"output":6
				},
				{
					"input":4,
					"interpolation":"LINEAR",
					"output":7
				}
			]
		}
	],
	"materials":[
		{
			"doubleSided":true,
			"emissiveFactor":[
				1,
				0.9825296401977539,
				0.825295627117157
			],
			"name":"EMISSION",
			"pbrMetallicRoughness":{
				"baseColorFactor":[
					0,
					0,
					0,
					1
				]
			}
		}
	],
	"meshes":[
		{
			"name":"Cube.005",
			"primitives":[
				{
					"attributes":{
						"POSITION":0,
						"TEXCOORD_0":1,
						"NORMAL":2
					},
					"indices":3,
					"material":0
				}
			]
		}
	],
	"accessors":[
		{
			"bufferView":0,
			"componentType":5126,
			"count":946,
			"max":[
				0.15714484453201294,
				0.6772194504737854,
				-0.576873779296875
			],
			"min":[
				-0.142098069190979,
				0.46660324931144714,
				-0.7893261909484863
			],
			"type":"VEC3"
		},
		{
			"bufferView":1,
			"componentType":5126,
			"count":946,
			"type":"VEC2"
		},
		{
			"bufferView":2,
			"componentType":5126,
			"count":946,
			"type":"VEC3"
		},
		{
			"bufferView":3,
			"componentType":5123,
			"count":1980,
			"type":"SCALAR"
		},
		{
			"bufferView":4,
			"componentType":5126,
			"count":121,
			"max":[
				4.84
			],
			"min":[
				0.04
			],
			"type":"SCALAR"
		},
		{
			"bufferView":5,
			"componentType":5126,
			"count":121,
			"type":"VEC3"
		},
		{
			"bufferView":6,
			"componentType":5126,
			"count":121,
			"type":"VEC4"
		},
		{
			"bufferView":7,
			"componentType":5126,
			"count":121,
			"type":"VEC3"
		}
	],
	"bufferViews":[
		{
			"buffer":0,
			"byteLength":11352,
			"byteOffset":0,
			"target":34962
		},
		{
			"buffer":0,
			"byteLength":7568,
			"byteOffset":11352,
			"target":34962
		},
		{
			"buffer":0,
			"byteLength":11352,
			"byteOffset":18920,
			"target":34962
		},
		{
			"buffer":0,
			"byteLength":3960,
			"byteOffset":30272,
			"target":34963
		},
		{
			"buffer":0,
			"byteLength":484,
			"byteOffset":34232
		},
		{
			"buffer":0,
			"byteLength":1452,
			"byteOffset":34716
		},
		{
			"buffer":0,
			"byteLength":1936,
			"byteOffset":36168
		},
		{
			"buffer":0,
			"byteLength":1452,
			"byteOffset":38104
		}
	],
	"buffers":[
		{
			"byteLength":39556,
			"uri":"data:application/octet-stream;base64,"
		}
	]
}
