{
	"asset":{
		"generator":"Khronos glTF Blender I/O v3.5.30",
		"version":"2.0"
	},
	"extensionsUsed":[
		"KHR_materials_specular",
		"KHR_materials_ior"
	],
	"scene":0,
	"scenes":[
		{
			"name":"Scene",
			"nodes":[
				0
			]
		}
	],
	"nodes":[
		{
			"mesh":0,
			"name":"vaso"
		}
	],
	"materials":[
		{
			"doubleSided":true,
			"extensions":{
				"KHR_materials_specular":{
					"specularColorFactor":[
						1.164121031284894,
						1.164121031284894,
						1.164121031284894
					]
				},
				"KHR_materials_ior":{
					"ior":1.4500000476837158
				}
			},
			"name":"Material.001",
			"pbrMetallicRoughness":{
				"baseColorFactor":[
					0.27992379665374756,
					0.8000000715255737,
					0.6377840042114258,
					1
				],
				"metallicFactor":0.4954545497894287,
				"roughnessFactor":0.6818181872367859
			}
		},
		{
			"doubleSided":true,
			"name":"diert",
			"pbrMetallicRoughness":{
				"baseColorFactor":[
					0.10653538256883621,
					0.05852655693888664,
					0.011671324260532856,
					1
				],
				"metallicFactor":0,
				"roughnessFactor":0.5
			}
		}
	],
	"meshes":[
		{
			"name":"Cylinder.006",
			"primitives":[
				{
					"attributes":{
						"POSITION":0,
						"TEXCOORD_0":1,
						"NORMAL":2
					},
					"indices":3,
					"material":0
				},
				{
					"attributes":{
						"POSITION":4,
						"TEXCOORD_0":5,
						"NORMAL":6
					},
					"indices":7,
					"material":1
				}
			]
		}
	],
	"accessors":[
		{
			"bufferView":0,
			"componentType":5126,
			"count":232,
			"max":[
				-0.5801690816879272,
				0.2936919033527374,
				-0.429431289434433
			],
			"min":[
				-0.8445151448249817,
				0.04999971017241478,
				-0.6953054666519165
			],
			"type":"VEC3"
		},
		{
			"bufferView":1,
			"componentType":5126,
			"count":232,
			"type":"VEC2"
		},
		{
			"bufferView":2,
			"componentType":5126,
			"count":232,
			"type":"VEC3"
		},
		{
			"bufferView":3,
			"componentType":5123,
			"count":384,
			"type":"SCALAR"
		},
		{
			"bufferView":4,
			"componentType":5126,
			"count":10,
			"max":[
				-0.6039221286773682,
				0.26697784662246704,
				-0.4533217251300812
			],
			"min":[
				-0.8207619786262512,
				0.26697784662246704,
				-0.6714150309562683
			],
			"type":"VEC3"
		},
		{
			"bufferView":5,
			"componentType":5126,
			"count":10,
			"type":"VEC2"
		},
		{
			"bufferView":6,
			"componentType":5126,
			"count":10,
			"type":"VEC3"
		},
		{
			"bufferView":7,
			"componentType":5123,
			"count":24,
			"type":"SCALAR"
		}
	],
	"bufferViews":[
		{
			"buffer":0,
			"byteLength":2784,
			"byteOffset":0,
			"target":34962
		},
		{
			"buffer":0,
			"byteLength":1856,
			"byteOffset":2784,
			"target":34962
		},
		{
			"buffer":0,
			"byteLength":2784,
			"byteOffset":4640,
			"target":34962
		},
		{
			"buffer":0,
			"byteLength":768,
			"byteOffset":7424,
			"target":34963
		},
		{
			"buffer":0,
			"byteLength":120,
			"byteOffset":8192,
			"target":34962
		},
		{
			"buffer":0,
			"byteLength":80,
			"byteOffset":8312,
			"target":34962
		},
		{
			"buffer":0,
			"byteLength":120,
			"byteOffset":8392,
			"target":34962
		},
		{
			"buffer":0,
			"byteLength":48,
			"byteOffset":8512,
			"target":34963
		}
	],
	"buffers":[
		{
			"byteLength":8560,
			"uri":"data:application/octet-stream;base64,"
		}
	]
}
