{
	"asset":{
		"generator":"Khronos glTF Blender I/O v3.5.30",
		"version":"2.0"
	},
	"scene":0,
	"scenes":[
		{
			"name":"Scene",
			"nodes":[
				0
			]
		}
	],
	"nodes":[
		{
			"mesh":0,
			"name":"PUFF"
		}
	],
	"materials":[
		{
			"doubleSided":true,
			"name":"bean-bag-chair-003",
			"pbrMetallicRoughness":{
				"baseColorFactor":[
					0.05780256912112236,
					0.05780256912112236,
					0.05780256912112236,
					1
				],
				"metallicFactor":0,
				"roughnessFactor":0.5
			}
		}
	],
	"meshes":[
		{
			"name":"bean-bag-chair-003",
			"primitives":[
				{
					"attributes":{
						"POSITION":0,
						"TEXCOORD_0":1,
						"NORMAL":2
					},
					"indices":3,
					"material":0
				}
			]
		}
	],
	"accessors":[
		{
			"bufferView":0,
			"componentType":5126,
			"count":14742,
			"max":[
				-0.22155196964740753,
				0.6844188570976257,
				0.914188802242279
			],
			"min":[
				-0.9495750665664673,
				0.05000004544854164,
				0.26594117283821106
			],
			"type":"VEC3"
		},
		{
			"bufferView":1,
			"componentType":5126,
			"count":14742,
			"type":"VEC2"
		},
		{
			"bufferView":2,
			"componentType":5126,
			"count":14742,
			"type":"VEC3"
		},
		{
			"bufferView":3,
			"componentType":5123,
			"count":84864,
			"type":"SCALAR"
		}
	],
	"bufferViews":[
		{
			"buffer":0,
			"byteLength":176904,
			"byteOffset":0,
			"target":34962
		},
		{
			"buffer":0,
			"byteLength":117936,
			"byteOffset":176904,
			"target":34962
		},
		{
			"buffer":0,
			"byteLength":176904,
			"byteOffset":294840,
			"target":34962
		},
		{
			"buffer":0,
			"byteLength":169728,
			"byteOffset":471744,
			"target":34963
		}
	],
	"buffers":[
		{
			"byteLength":641472,
			"uri":"data:application/octet-stream;base64,"
		}
	]
}
