{
	"asset":{
		"generator":"Khronos glTF Blender I/O v3.5.30",
		"version":"2.0"
	},
	"extensionsUsed":[
		"KHR_materials_specular",
		"KHR_materials_ior"
	],
	"scene":0,
	"scenes":[
		{
			"name":"Scene",
			"nodes":[
				1
			]
		}
	],
	"nodes":[
		{
			"mesh":0,
			"name":"side-table"
		},
		{
			"children":[
				0
			],
			"name":"SIDE TABLE"
		}
	],
	"materials":[
		{
			"doubleSided":true,
			"extensions":{
				"KHR_materials_specular":{
					"specularColorFactor":[
						0,
						0,
						0
					]
				},
				"KHR_materials_ior":{
					"ior":1.4500000476837158
				}
			},
			"name":"side-table-020",
			"pbrMetallicRoughness":{
				"baseColorFactor":[
					0.04954923316836357,
					0.04954923316836357,
					0.04954923316836357,
					1
				],
				"roughnessFactor":0.7952755689620972
			}
		}
	],
	"meshes":[
		{
			"name":"side-table",
			"primitives":[
				{
					"attributes":{
						"POSITION":0,
						"TEXCOORD_0":1,
						"NORMAL":2
					},
					"indices":3,
					"material":0
				}
			]
		}
	],
	"accessors":[
		{
			"bufferView":0,
			"componentType":5126,
			"count":12378,
			"max":[
				-0.545495867729187,
				0.43029406666755676,
				0.27388879656791687
			],
			"min":[
				-0.8882523775100708,
				0.04885048791766167,
				-0.06886782497167587
			],
			"type":"VEC3"
		},
		{
			"bufferView":1,
			"componentType":5126,
			"count":12378,
			"type":"VEC2"
		},
		{
			"bufferView":2,
			"componentType":5126,
			"count":12378,
			"type":"VEC3"
		},
		{
			"bufferView":3,
			"componentType":5123,
			"count":59808,
			"type":"SCALAR"
		}
	],
	"bufferViews":[
		{
			"buffer":0,
			"byteLength":148536,
			"byteOffset":0,
			"target":34962
		},
		{
			"buffer":0,
			"byteLength":99024,
			"byteOffset":148536,
			"target":34962
		},
		{
			"buffer":0,
			"byteLength":148536,
			"byteOffset":247560,
			"target":34962
		},
		{
			"buffer":0,
			"byteLength":119616,
			"byteOffset":396096,
			"target":34963
		}
	],
	"buffers":[
		{
			"byteLength":515712,
			"uri":"data:application/octet-stream;base64,"
		}
	]
}
